<svg xmlns="http://www.w3.org/2000/svg" shape-rendering="geometricPrecision" text-rendering="geometricPrecision" image-rendering="optimizeQuality" fill-rule="evenodd" clip-rule="evenodd" viewBox="0 0 492 512.324"><circle fill="#F33" cx="231.181" cy="231.181" r="231.181"/><path fill="#B22424" d="M437.687 127.17C471.6 167.894 492 220.259 492 277.396c0 129.745-105.182 234.928-234.928 234.928-103.431 0-191.249-66.843-222.619-159.684 40.74 65.851 113.605 109.722 196.728 109.722 127.682 0 231.181-103.499 231.181-231.181 0-37.413-8.898-72.75-24.675-104.011z"/><path fill="#fff" fill-rule="nonzero" d="M141.295 243.713c-9.347-8.324-9.094-15.736 0-24.172l78.169-69.713c10.177-6.38 20.79-2.633 20.507 10.653l-.112 39.171 55.88-49.824c10.167-6.38 20.78-2.633 20.507 10.653l-.405 140.247c-.871 14.4-9.094 18.349-21.216 11.686l-54.948-48.984-.101 37.298c-.871 14.4-9.094 18.349-21.216 11.686l-77.065-68.701z"/></svg>