<?xml version="1.0" encoding="utf-8"?>
<!-- Generator: Adobe Illustrator 25.4.1, SVG Export Plug-In . SVG Version: 6.00 Build 0)  -->
<svg version="1.1" id="Layer_1" xmlns="http://www.w3.org/2000/svg" xmlns:xlink="http://www.w3.org/1999/xlink" x="0px" y="0px"
	 viewBox="0 0 255.2 51.7" style="enable-background:new 0 0 255.2 51.7;" xml:space="preserve">
<style type="text/css">
	.st0{fill-rule:evenodd;clip-rule:evenodd;fill:#FFFFFF;}
</style>
<path class="st0" d="M16.8,19.9h-2.8L3.1,5.9l0,14H0V0.5h2.8l10.8,14v-14h3.1L16.8,19.9L16.8,19.9z M27.9,2.1c0,1.1-0.9,2-2,2
	c0,0,0,0-0.1,0c-1.1,0-2-0.8-2-1.9c0,0,0-0.1,0-0.1c0-1.1,0.8-2,1.9-2c0,0,0,0,0.1,0C27,0,27.9,0.9,27.9,2.1
	C27.9,2,27.9,2.1,27.9,2.1L27.9,2.1z M27.3,19.9h-2.9V6.7h2.9V19.9L27.3,19.9z M47,11.6v8.3h-2.9v-7.4c0-2.2-1.2-3.5-3.1-3.5
	c-1.8-0.1-3.4,1.3-3.4,3.1c0,0.1,0,0.2,0,0.4v7.4h-2.9V6.7h2.9v1.6c0.9-1.3,2.5-2,4.1-2c2.8-0.2,5.2,2,5.4,4.8
	C47,11.3,47,11.4,47,11.6L47,11.6z M62.7,9.3h-5.1v5.8c0,1.8,0.9,2.5,2.1,2.5c1-0.1,1.9-0.4,2.7-0.9l1.2,2.3
	c-1.2,0.8-2.6,1.3-4.1,1.3c-3,0-4.8-1.6-4.8-5.2V9.3H52V6.7h2.6v-4h2.9v4h5.1V9.3L62.7,9.3z M80.9,13.3c0,0.4,0,0.7-0.1,1.1H71
	c0.2,2,1.9,3.5,3.9,3.4c1.4,0,2.7-0.5,3.8-1.4l1.4,2.1c-1.5,1.3-3.5,1.9-5.5,1.9c-4,0-6.8-2.8-6.8-7c0-4.2,2.7-7,6.6-7
	C78.3,6.3,80.9,9.1,80.9,13.3L80.9,13.3z M71,12.2h6.9c-0.3-2.1-1.5-3.3-3.4-3.3C72.5,8.9,71.4,10.2,71,12.2z M99,11.6v8.3h-2.9
	v-7.4c0-2.2-1.1-3.5-3.1-3.5c-1.8-0.1-3.4,1.3-3.4,3.1c0,0.1,0,0.2,0,0.4v7.4h-2.9V6.7h2.9v1.6c0.9-1.3,2.5-2,4.1-2
	c2.8-0.2,5.2,2,5.4,4.8C99,11.3,99,11.4,99,11.6L99,11.6z M115,8.3V0h2.9v19.9H115v-1.6c-1,1.3-2.5,2-4.2,1.9
	c-3.9-0.2-6.8-3.5-6.6-7.3c0.2-3.6,3-6.4,6.6-6.6C112.4,6.3,114,7,115,8.3L115,8.3z M107.1,13.3c0.1,2.2,2,3.9,4.2,3.8
	c2.2-0.1,3.9-2,3.8-4.2c-0.1-2.1-1.9-3.8-4-3.8c-2.2,0-4,1.7-4,3.9C107.1,13.1,107.1,13.2,107.1,13.3L107.1,13.3z M137.4,13.3
	c0.1,3.9-3,7.2-7,7.3s-7.2-3-7.3-7s3-7.2,7-7.3c0.1,0,0.1,0,0.2,0c3.8-0.1,7,2.8,7.1,6.6C137.4,13.1,137.4,13.2,137.4,13.3
	L137.4,13.3z M126.1,13.3c0.1,2.3,2,4.1,4.3,4.1c2.3-0.1,4.1-2,4.1-4.3c0-2.3-1.9-4.1-4.2-4.1c-2.2-0.1-4.1,1.7-4.2,4
	C126.1,13.1,126.1,13.2,126.1,13.3L126.1,13.3z M167,4.8c-1.6-1.1-3.5-1.6-5.4-1.7c-2.6,0-4.4,1.1-4.4,2.9c0,1.6,1.5,2.2,4,2.6
	l1.3,0.2c3.1,0.4,6.2,1.7,6.2,5.3c0,3.9-3.6,6.1-7.8,6.1c-2.8,0-5.6-0.9-7.8-2.6l1.7-2.5c1.7,1.4,3.9,2.1,6.1,2.1
	c2.5,0,4.5-1.1,4.5-2.9c0-1.5-1.5-2.2-4.4-2.6l-1.5-0.2c-2.9-0.4-5.7-1.8-5.7-5.4c0-3.9,3.4-6.1,7.6-6.1c2.5,0,4.9,0.7,7,2.1
	L167,4.8z M189.2,16.8l3.1-10.1h3L191,19.9h-3.5l-3.3-10l-3.3,10h-3.4l-4.4-13.3h3.1l3.1,10.1l3.3-10.1h3.3L189.2,16.8z M204.4,2.1
	c0,1.1-0.9,2-2,2c0,0,0,0-0.1,0c-1.1,0-2-0.8-2-1.9c0,0,0-0.1,0-0.1c0-1.1,0.9-2,2-2c0,0,0,0,0.1,0C203.4,0,204.4,0.9,204.4,2.1
	C204.4,2,204.4,2.1,204.4,2.1L204.4,2.1z M203.8,19.9h-2.9V6.7h2.9V19.9L203.8,19.9z M220.2,9.3h-5.1v5.8c0,1.8,0.9,2.5,2.1,2.5
	c1-0.1,1.9-0.4,2.7-0.9L221,19c-1.2,0.8-2.6,1.3-4.1,1.3c-3,0-4.8-1.6-4.8-5.2V9.3h-2.6V6.7h2.6v-4h2.9v4h5.1V9.3L220.2,9.3z
	 M237.4,8.4l-1.9,2c-0.8-0.9-2-1.4-3.2-1.4c-2.3,0.2-4.1,2.3-3.9,4.6c0.2,2.1,1.8,3.7,3.9,3.9c1.2,0,2.4-0.5,3.3-1.4l1.8,2
	c-1.3,1.4-3.1,2.2-5,2.1c-3.9,0-7-3.1-7-7s3.1-7,7-7l0,0C234.4,6.2,236.2,7,237.4,8.4L237.4,8.4z M245.8,8.2c0.9-1.3,2.5-2,4-1.9
	c2.8-0.2,5.2,2,5.4,4.8c0,0.1,0,0.3,0,0.4v8.3h-2.9v-7.4c0-2.2-1.2-3.5-3.1-3.5c-1.8-0.1-3.4,1.3-3.4,3.1c0,0.1,0,0.2,0,0.4v7.4
	h-2.9V0h2.9L245.8,8.2L245.8,8.2z M80.9,43c0-4.2,3.2-7.3,7.5-7.3c4.3,0,7.5,3.1,7.5,7.3c0,4.2-3.2,7.3-7.5,7.3
	C84,50.3,80.9,47.2,80.9,43z M92.7,43c0-2.6-1.9-4.5-4.4-4.5c-2.5,0-4.4,1.9-4.4,4.5c0,2.6,1.9,4.5,4.4,4.5
	C90.9,47.5,92.7,45.6,92.7,43z M101.6,36.1v11.1h6.9v2.7h-10V36.1H101.6z M110.9,36.1h10.3v2.7H114v2.8h6.6v2.7H114v3h7.4v2.7h-10.5
	V36.1z M124.3,36.1h5.4c4.6,0,7.4,2.8,7.4,6.9s-2.8,6.9-7.4,6.9h-5.4V36.1z M129.7,47.2c2.7,0,4.3-1.5,4.3-4.2s-1.6-4.2-4.3-4.2
	h-2.3v8.4H129.7z M158.2,47.2V49H144v-1.8h6V44h-4.5v-7.7h11.1V44h-4.4v3.2H158.2z M147.7,42.3h6.7v-4.1h-6.7V42.3z M167.7,42.7
	c-1.7,0.3-3.1,0.3-5.5,0.3h-1.1V36h6.1v1.8h-3.8v3.5c1.7,0,2.9-0.1,4.2-0.3L167.7,42.7z M174.4,48.9v1.8h-11.1v-4.2h8.5v-0.8h-8.5
	v-1.7h10.7v4.2h-8.5v0.9H174.4z M168.7,38.5v-3h2.1v7.8h-2.1v-3.1h-2.4v-1.7H168.7z M173.9,43.4h-2.1v-8.2h2.1V43.4z"/>
</svg>
